<?xml version="1.0" encoding="UTF-8"?>
<svg id="Layer_1" data-name="Layer 1" xmlns="http://www.w3.org/2000/svg" viewBox="0 0 48 48">
  <defs>
    <style>
      .cls-1 {
        fill: #e06861;
      }

      .cls-2 {
        fill: #e9af59;
      }

      .cls-3 {
        fill: #dd9160;
      }

      .cls-4 {
        fill: #685369;
      }
    </style>
  </defs>
  <path class="cls-2" d="M23.08,16.55h-7.4c-.14-.12-.3-.22-.46-.3-.4-.2-.87-.29-1.41-.29-.86,0-1.62.19-2.31.59H3.13c.38-.77.81-1.49,1.28-2.17,1.14-1.65,2.52-2.94,4.11-3.87s3.39-1.4,5.37-1.4c1.45,0,2.78.24,3.97.72,1.19.48,2.21,1.18,3.05,2.11s1.47,2.08,1.88,3.43c.12.38.21.77.29,1.18Z"/>
  <path class="cls-3" d="M11.51,16.55c-.2.11-.4.25-.59.4-.82.66-1.5,1.54-2.03,2.62-.54,1.08-.94,2.27-1.2,3.55-.06.29-.12.59-.16.88H1.03c.14-1.36.4-2.66.75-3.93.36-1.26.81-2.44,1.34-3.53h8.38Z"/>
  <path class="cls-1" d="M8.93,31.44H1.39c-.35-1.34-.52-2.84-.52-4.5,0-1,.05-1.98.16-2.94h6.48c-.16.98-.24,1.95-.24,2.92,0,1.14.14,2.09.43,2.85.28.74.68,1.3,1.22,1.67Z"/>
  <path class="cls-1" d="M22.2,28.38c-.24,1-.6,2.02-1.09,3.06h-7.75c.27-.15.53-.33.77-.53.42-.37.78-.8,1.08-1.31.25-.43.45-.9.61-1.41.05-.17.2-.29.37-.29h5.61c.25,0,.44.23.38.47Z"/>
  <path class="cls-4" d="M21.1,31.44l-.11.24c-.63,1.29-1.44,2.47-2.43,3.56-.99,1.09-2.14,1.97-3.48,2.64-1.33.67-2.83,1-4.5,1-1.91,0-3.6-.46-5.06-1.38-1.46-.92-2.6-2.27-3.43-4.05-.29-.62-.52-1.29-.71-2.01h7.53s.03.02.04.03c.56.37,1.23.56,2.03.56.61,0,1.18-.1,1.71-.29.22-.09.44-.19.64-.3h7.75Z"/>
  <path class="cls-3" d="M23.3,19.71c0,.21-.18.38-.39.38h-5.62c-.21,0-.39-.17-.39-.38,0-.48-.06-.92-.14-1.32-.12-.5-.3-.94-.56-1.3-.15-.21-.32-.39-.51-.54h7.4c.18.97.25,2.02.22,3.16Z"/>
  <path class="cls-2" d="M34.95,16.55h-10.29l.89-6.72c.02-.19.19-.33.38-.33h6.25c.16,0,.31.1.37.25l2.4,6.8Z"/>
  <path class="cls-2" d="M47.12,9.94l-.88,6.61h-6.49l.89-6.72c.03-.19.19-.33.39-.33h5.7c.24,0,.42.2.38.44Z"/>
  <path class="cls-3" d="M46.24,16.55l-.99,7.45h-6.37c.01-.16.03-.32.04-.48.12-1.34.24-2.47.35-3.4l.48-3.58h6.49Z"/>
  <path class="cls-3" d="M37.48,24h-6c-.24-.89-.48-1.82-.69-2.79-.12-.55-.26-1.14-.4-1.77-.04.59-.08,1.2-.13,1.78-.07.97-.15,1.9-.22,2.77h-6.36l.99-7.45h10.29l1.53,4.34c.35.99.68,1.97.95,2.96.01.05.03.11.04.16Z"/>
  <path class="cls-1" d="M30.04,24c-.03.33-.06.66-.09.99-.11,1.16-.2,2.13-.31,2.92l-.46,3.53h-6.49l.99-7.44h6.36Z"/>
  <path class="cls-4" d="M29.18,31.44l-.89,6.72c-.03.2-.19.34-.39.34h-5.7c-.24,0-.42-.21-.38-.44l.88-6.62h6.49Z"/>
  <path class="cls-1" d="M45.25,24l-.99,7.44h-10.3l-1.25-3.53c-.42-1.21-.79-2.34-1.08-3.38-.05-.17-.1-.35-.15-.53h6c.26.94.51,1.98.72,3.1.11.52.2,1.07.3,1.67.02-.37.06-.76.09-1.16.09-1.21.19-2.42.29-3.61h6.37Z"/>
  <path class="cls-4" d="M44.27,31.44l-.89,6.72c-.02.2-.19.34-.38.34h-6.25c-.16,0-.31-.11-.37-.26l-2.42-6.8h10.3Z"/>
</svg>